<?xml version="1.0" encoding="UTF-8"?>
<svg id="Layer_1" data-name="Layer 1" xmlns="http://www.w3.org/2000/svg" viewBox="0 0 1239.63 203.89">
  <defs>
    <style>
      .cls-1 {
        fill: #241f21;
      }
    </style>
  </defs>
  <rect class="cls-1" width="50" height="200"/>
  <rect class="cls-1" x="75" width="50" height="200"/>
  <rect class="cls-1" x="150" width="50" height="200"/>
  <g>
    <path class="cls-1" d="M744.82,89.2l-4.14,6.73c-.18.29-.49.46-.83.46h0c-.59,0-1.05-.53-.96-1.11l4.95-33.05c.09-.59-.37-1.11-.96-1.11h-42.66c-.89,0-1.31,1.09-.65,1.69l17.17,15.5c.2.18.32.45.32.72v103.07c0,.27-.12.54-.32.72l-17.24,15.5c-.66.59-.24,1.69.65,1.69h62.09c.89,0,1.31-1.09.65-1.69l-17.17-15.5c-.2-.18-.32-.45-.32-.72v-76.6c0-.14.03-.28.09-.41,2.98-6.71,6.75-11.59,11.3-15.67.18-.16.41-.25.66-.25h35.88c.54,0,.97-.43.97-.97v-29.79c0-.61-.56-1.08-1.16-.96-20.31,4.13-37.35,16.44-48.26,31.68-.02.02-.03.04-.04.07Z"/>
    <path class="cls-1" d="M1013.99,57.22c-41.11,0-68.06,30-68.06,73.33s26.67,73.33,68.06,73.33,68.33-30,68.33-73.33-26.94-73.33-68.33-73.33ZM1013.99,195c-23.61,0-36.94-25.55-36.94-64.44s13.33-64.45,36.94-64.45,37.22,25.56,37.22,64.45-13.61,64.44-37.22,64.44Z"/>
    <path class="cls-1" d="M938.79,62.82c.69-.58.28-1.71-.63-1.71h-46.64c-.89,0-1.31,1.09-.65,1.69l14.4,13c.43.39.43,1.06,0,1.44l-47.66,42.23c-.18.16-.41.24-.64.24h-10.33c-.54,0-.97-.43-.97-.97V.97C845.66.43,845.23,0,844.69,0h-44.2c-.89,0-1.31,1.09-.65,1.69l17.17,15.5c.2.18.32.45.32.72v164.18c0,.27-.12.54-.32.72l-17.17,15.5c-.66.59-.24,1.69.65,1.69h62.01c.89,0,1.31-1.09.65-1.69l-17.17-15.5c-.2-.18-.32-.45-.32-.72v-51.4c0-.54.43-.97.97-.97h10.21c.31,0,.59.14.78.39l51.73,69.5c.18.25.47.39.78.39h33.14c.81,0,1.26-.93.76-1.57l-65.3-83.53c-.32-.41-.26-1,.14-1.34l59.91-50.74Z"/>
    <path class="cls-1" d="M664.9,102.22c0-29.44-18.06-45-45.83-45-34.19,0-57.61,23.17-60.44,46.42-.07.57.39,1.08.97,1.08h30.73c.54,0,.97-.43.97-.97v-29.09c0-.31.15-.61.4-.79,4.68-3.41,10.93-4.98,18.49-4.98,18.89,0,27.78,14.72,27.78,36.67v8.45c0,.43-.28.8-.68.93l-28.21,8.68c-21.39,6.67-52.5,17.5-52.5,46.67,0,20.28,16.39,32.78,36.95,32.78,23.38,0,39.13-14.43,48.61-29.55.18-.28.48-.45.81-.45h.03c.59,0,1.04.52.96,1.1l-3.32,24.75c-.08.58.37,1.1.96,1.1h40.17c.89,0,1.31-1.09.65-1.69l-17.17-15.5c-.2-.18-.32-.45-.32-.72v-79.87ZM637.95,164.17c0,.18-.05.36-.14.51-8.05,13.47-19.94,21.71-32.92,21.71-11.94,0-20.55-8.89-20.55-22.22,0-17.5,17.22-26.11,27.22-30l25.06-10.02c.64-.25,1.33.21,1.33.9v39.13Z"/>
    <path class="cls-1" d="M1239.63,61.11h-48.56c-.89,0-1.31,1.09-.65,1.69l16.89,15.25c.3.28.4.71.25,1.09l-34.75,83.69c-.33.8-1.46.8-1.79,0l-34.48-83.64c-.16-.38-.06-.81.25-1.09l18.82-17h-67.92c-.89,0-1.31,1.09-.65,1.69l17.33,15.65c.1.09.18.21.24.33l53.72,123.97c.15.35.5.58.89.58h7.06c.39,0,.74-.23.89-.59l53.12-124.37v.21l19.36-17.48Z"/>
    <path class="cls-1" d="M537.19,0h-52.11c-.39,0-.75.24-.9.6l-65.5,159.39c-.33.81-1.48.8-1.8-.01L354.39.62C354.25.24,353.89,0,353.49,0h-50.97c-.89,0-1.31,1.09-.65,1.69l17.8,16.11c.2.18.32.44.32.72v162.96c0,.27-.12.53-.32.72l-17.8,16.11c-.66.6-.24,1.69.65,1.69h46.05c.89,0,1.31-1.09.65-1.69l-17.8-16.11c-.2-.18-.32-.44-.32-.72V28.83c0-1.06,1.46-1.35,1.87-.37l70.66,173.16c.15.36.5.6.9.6h7.04c.39,0,.74-.23.89-.6L484.79,28.62c.41-.98,1.86-.68,1.86.37v153.53h0s0-.61,0-.61l-18.12,16.4c-.66.6-.24,1.69.65,1.69h65.49c.89,0,1.31-1.09.65-1.69l-17.8-16.11c-.2-.18-.32-.44-.32-.72V18.52c0-.27.12-.53.32-.72L537.19,0Z"/>
  </g>
</svg>