<?xml version="1.0" encoding="UTF-8"?>
<svg id="Layer_1" data-name="Layer 1" xmlns="http://www.w3.org/2000/svg" viewBox="0 0 1239.63 203.89">
  <defs>
    <style>
      .cls-1 {
        fill: #241f21;
      }
    </style>
  </defs>
  <rect class="cls-1" width="25" height="200"/>
  <rect class="cls-1" x="-43.13" y="87.5" width="198.75" height="25" transform="translate(-52.25 137.29) rotate(-79.61)"/>
  <rect class="cls-1" x="44.37" y="87.5" width="198.75" height="25" transform="translate(19.46 223.36) rotate(-79.61)"/>
  <rect class="cls-1" x="87.5" width="25" height="200"/>
  <rect class="cls-1" x="175" width="25" height="200"/>
  <g>
    <path class="cls-1" d="M744.84,89.17l-4.44,7.22h-1.67l5.28-35.28h-46.3l19.36,17.48v103.93l-19.44,17.48h67.13l-19.36-17.48v-77.25c3.06-6.94,6.94-11.94,11.67-16.11h37.22v-31.94c-20.83,3.89-38.33,16.39-49.44,31.94Z"/>
    <path class="cls-1" d="M1013.99,57.22c-41.11,0-68.06,30-68.06,73.33s26.67,73.33,68.06,73.33,68.33-30,68.33-73.33-26.94-73.33-68.33-73.33ZM1013.99,195c-23.61,0-36.94-25.55-36.94-64.44s13.33-64.45,36.94-64.45,37.22,25.56,37.22,64.45-13.61,64.44-37.22,64.44Z"/>
    <polygon class="cls-1" points="940.8 61.11 918.55 61.11 908.35 61.11 889 61.11 906.07 76.53 857.33 119.72 845.66 119.72 845.66 0 797.97 0 817.33 17.48 817.33 182.52 797.97 200 865.02 200 845.66 182.52 845.66 129.72 857.33 129.72 909.64 200 945.26 200 878.16 114.17 940.8 61.11"/>
    <path class="cls-1" d="M664.9,102.22c0-29.44-18.06-45-45.83-45-34.72,0-58.33,23.89-60.56,47.5h32.78v-30.56c4.72-3.61,11.11-5.28,18.89-5.28,18.89,0,27.78,14.72,27.78,36.67v9.17l-28.89,8.89c-21.39,6.67-52.5,17.5-52.5,46.67,0,20.28,16.39,32.78,36.95,32.78,23.61,0,39.44-14.72,48.89-30h1.67l-3.61,26.94h43.8l-19.36-17.48v-80.3ZM637.95,164.44c-8.06,13.61-20,21.94-33.06,21.94-11.94,0-20.55-8.89-20.55-22.22,0-17.5,17.22-26.11,27.22-30l26.39-10.55v40.83Z"/>
    <polygon class="cls-1" points="1239.63 61.11 1237.9 61.11 1220.27 61.11 1217.32 61.11 1207.9 61.11 1191.9 61.11 1188.55 61.11 1207.82 78.51 1171.91 165 1136.27 78.56 1155.6 61.11 1153.79 61.11 1136.24 61.11 1126.83 61.11 1104.52 61.11 1090.7 61.11 1085.16 61.11 1104.52 78.59 1158.57 203.33 1166.91 203.33 1220.27 78.38 1220.27 78.59 1239.63 61.11"/>
    <polygon class="cls-1" points="537.19 0 535.03 0 517.21 0 484.43 0 417.76 162.22 354.15 0 300 0 319.98 18.09 319.98 181.91 300 200 304.65 200 319.98 200 331.09 200 340.01 200 351.08 200 331.09 181.91 331.09 23.89 403.87 202.22 412.21 202.22 486.65 24.17 486.65 182.52 486.65 182.52 486.65 181.91 466.67 200 479.52 200 486.65 200 517.21 200 520.77 200 537.19 200 517.21 181.91 517.21 18.09 537.19 0"/>
  </g>
</svg>